# xmcd CD database file generated by MAGIX_Freedb v0.9beta0
# 
# Track frame offsets:
#      150
#      22462
#      47187
#      61142
#      84369
#      99559
#      124469
#      149177
#      169187
#      186636
#      215370
#      236017
#      253902
# 
# Disc length: 3647 seconds
# 
# Revision: 0 
# Processed by: cddbd v1.5.1PL0 Copyright (c) Steve Scherf et al.
# Submitted via: MAGIX_Freedb v0.9beta0
# 
DISCID=d10e3d0d
DTITLE=Mark Knopfler - Sailing to Philadelphia
DYEAR=1900
DGENRE=
TTITLE0=What it is
TTITLE1=Sailing to Philadelphia
TTITLE2=Who's your baby now
TTITLE3=Baloney again
TTITLE4=The last laugh
TTITLE5=Silvertown blues
TTITLE6=El macho
TTITLE7=Prairie wedding
TTITLE8=Wanderlust
TTITLE9=Speedway at Nazareth
TTITLE10=Junkie doll
TTITLE11=Sands of Nevada
TTITLE12=One more matinee
EXTD=
EXTT0=
EXTT1=
EXTT2=
EXTT3=
EXTT4=
EXTT5=
EXTT6=
EXTT7=
EXTT8=
EXTT9=
EXTT10=
EXTT11=
EXTT12=
PLAYORDER=
